<svg xmlns="http://www.w3.org/2000/svg" width="46" height="46" viewBox="0 0 46 46" fill="none">
  <path d="M44.5 23.5C44.5 22.0152 44.3793 20.5623 44.1525 19.1545H23V27.35H34.8286C34.3184 30.1 32.721 32.4072 30.2857 33.9935V39.6024H37.2525C41.4807 35.6922 44.5 30.0936 44.5 23.5Z" fill="#4285F4"/>
  <path d="M23 45C28.8975 45 34.0106 43.0371 37.2524 39.6024L30.2857 33.9935C28.5341 35.1631 26.144 35.881 23 35.881C17.2787 35.881 12.3869 31.9379 10.6306 26.8074H3.42847V32.602C6.65167 39.7332 14.1858 45 23 45Z" fill="#34A853"/>
  <path d="M10.6307 26.8074C10.1786 25.6378 9.92661 24.3859 9.92661 23.0001C9.92661 21.6143 10.1786 20.3624 10.6307 19.1928V13.3982H3.42849C1.94207 16.545 1.07825 19.9685 1.07825 23.5001C1.07825 27.0316 1.94207 30.4553 3.42849 33.602L10.6307 26.8074Z" fill="#FBBC05"/>
  <path d="M23 10.1191C26.4871 10.1191 29.6072 11.3209 31.9857 13.59L37.425 8.15071C34.0045 4.99276 28.8975 3 23 3C14.1858 3 6.65167 8.26676 3.42847 15.3982L10.6306 21.1928C12.3869 16.0623 17.2787 12.1191 23 12.1191Z" fill="#EA4335"/>
</svg>
