<svg version="1.1" id="Layer_1" xmlns="http://www.w3.org/2000/svg" xmlns:xlink="http://www.w3.org/1999/xlink" x="0px" y="0px"
	 width="100%" viewBox="0 0 500 500" enable-background="new 0 0 500 500" xml:space="preserve">
<path fill="#FEFEFE" opacity="1.000000" stroke="none" 
	d="
M235.000000,501.000000 
	C156.666687,501.000000 78.833374,501.000000 1.000042,501.000000 
	C1.000028,334.333405 1.000028,167.666779 1.000014,1.000131 
	C167.666565,1.000087 334.333130,1.000087 500.999756,1.000044 
	C500.999847,167.666519 500.999847,334.333038 500.999939,500.999786 
	C412.500000,501.000000 324.000000,501.000000 235.000000,501.000000 
M110.917068,333.651947 
	C111.976585,331.021881 113.915710,328.404541 113.953888,325.759735 
	C114.215965,307.607788 114.110489,289.450012 114.050026,271.294312 
	C114.035522,266.937927 115.254585,262.064880 109.758934,259.582397 
	C109.224716,259.341095 109.109001,257.816437 109.080658,256.878998 
	C108.995583,254.064728 109.050018,251.246246 109.050018,248.499481 
	C127.780266,239.399582 146.173584,230.429306 164.606033,221.540222 
	C167.841263,219.979996 170.165497,218.053391 170.129318,214.077698 
	C170.052048,205.583588 170.142975,197.088058 170.103226,188.593399 
	C170.082062,184.071655 167.607010,181.937851 163.194748,181.887802 
	C160.933823,181.862152 158.672363,181.883316 156.117783,181.883316 
	C156.117783,179.059402 156.139526,176.916016 156.113953,174.773193 
	C156.011322,166.171509 153.682724,163.879929 145.058685,163.879944 
	C126.403137,163.879959 107.747581,163.882629 89.092033,163.886063 
	C77.432327,163.888214 65.772202,163.835968 54.113102,163.921921 
	C48.204605,163.965469 44.922352,166.495026 44.848289,171.443497 
	C44.683804,182.433365 44.688259,193.431564 44.938797,204.419205 
	C45.052074,209.387054 47.993111,212.083984 52.959206,212.095947 
	C84.606804,212.172195 116.254753,212.182251 147.902328,212.105957 
	C153.396393,212.092712 155.960571,209.236084 156.088394,203.609070 
	C156.174591,199.815125 156.104813,196.017624 156.104813,192.221725 
	C156.625717,191.954437 157.146606,191.687149 157.667511,191.419846 
	C158.480942,192.552628 159.919357,193.644897 159.995880,194.825455 
	C160.275436,199.137848 159.826385,203.502228 160.179871,207.803650 
	C160.490646,211.584991 158.925415,213.364578 155.645065,214.919617 
	C139.106293,222.759766 122.761734,231.012726 106.170113,238.736511 
	C100.887703,241.195618 98.582947,244.429794 98.960365,250.288620 
	C99.229614,254.468201 100.654800,259.309906 95.658257,262.320862 
	C94.942642,262.752075 94.718552,264.441193 94.716537,265.548950 
	C94.678711,286.369202 94.697647,307.189606 94.734291,328.009888 
	C94.741379,332.039520 97.202225,334.297211 100.849815,334.657928 
	C103.910118,334.960541 107.068192,334.274414 110.917068,333.651947 
M335.965363,200.594238 
	C337.479828,203.371017 339.332245,206.021591 340.427795,208.954834 
	C341.984009,213.121582 345.176270,212.603165 348.532562,212.886963 
	C352.161072,213.193756 353.001587,210.800476 354.240204,208.452255 
	C357.214630,202.813309 360.232513,197.197281 363.232880,191.572006 
	C363.698212,191.681229 364.163574,191.790451 364.628906,191.899673 
	C364.628906,202.544449 364.628906,213.189224 364.628906,223.780884 
	C369.826508,223.780884 374.268036,223.780884 378.926849,223.780884 
	C378.926849,203.794800 378.926849,184.064758 378.926849,163.876907 
	C376.245667,163.876907 373.740845,164.193314 371.346252,163.813995 
	C365.558350,162.897186 362.317688,165.183945 359.865204,170.519455 
	C356.224121,178.440842 351.692474,185.952850 347.066010,194.516235 
	C341.984528,185.075668 337.426331,176.445862 332.674072,167.924240 
	C331.797913,166.353134 330.250183,164.233627 328.816498,164.068497 
	C324.424072,163.562622 319.936310,163.884537 315.284668,163.884537 
	C315.284668,184.139114 315.284668,203.866272 315.284668,223.816193 
	C319.998016,223.816193 324.436768,223.816193 329.543335,223.816193 
	C329.543335,212.883606 329.543335,202.053604 329.543335,191.223618 
	C329.892670,191.155869 330.241974,191.088120 330.591309,191.020386 
	C332.264893,193.994904 333.938477,196.969437 335.965363,200.594238 
M297.050842,286.567902 
	C306.047455,278.542664 309.030060,268.463928 306.991730,256.798401 
	C304.605530,243.141953 292.264160,233.003067 277.899170,232.713379 
	C262.778473,232.408463 249.914246,241.989655 246.934448,255.775742 
	C243.949051,269.587738 248.622269,281.902527 259.537933,288.988312 
	C270.533569,296.126007 285.270935,295.338074 297.050842,286.567902 
M267.027771,218.608292 
	C268.693359,220.411987 270.147217,223.441406 272.067078,223.773026 
	C276.539551,224.545532 281.236328,224.019363 286.886627,224.019363 
	C282.082275,216.102509 277.743652,208.953140 273.363586,201.735443 
	C274.140259,201.190506 274.664734,200.806229 275.205139,200.445816 
	C282.202118,195.779388 285.327759,188.419617 283.789978,180.221176 
	C282.215942,171.829285 276.887299,165.453842 268.454285,164.650696 
	C258.822693,163.733383 249.036560,164.438339 239.340363,164.438339 
	C239.340363,184.308990 239.340363,204.014221 239.340363,223.657806 
	C244.392380,223.657806 249.104599,223.657806 254.121750,223.657806 
	C254.121750,216.992493 254.121750,210.710541 254.121750,204.528366 
	C257.652283,203.184433 259.600342,204.208786 261.018494,207.406601 
	C262.630005,211.040375 264.773315,214.438278 267.027771,218.608292 
M234.183578,287.720612 
	C238.469803,284.159424 241.815674,279.992462 243.163193,274.115936 
	C241.524841,273.577545 240.144913,273.064331 238.731384,272.672119 
	C235.872498,271.878784 232.995346,271.151093 230.228806,270.423431 
	C229.658356,271.099915 229.298737,271.443207 229.036682,271.849487 
	C224.638885,278.666901 218.899048,281.247803 212.246857,279.382843 
	C205.094238,277.377594 200.871048,271.659149 200.709686,263.760712 
	C200.554001,256.140228 204.611252,249.397324 210.608337,247.309769 
	C217.330978,244.969666 223.775085,247.494385 228.757767,254.151382 
	C229.433884,255.054703 231.185349,255.867706 232.222794,255.657242 
	C235.912552,254.908676 239.508881,253.699493 243.137711,252.665543 
	C238.114990,235.675766 218.085526,227.442566 202.313416,235.463913 
	C185.965881,243.777878 180.473145,263.370941 189.956238,279.543030 
	C198.695419,294.446503 218.120743,298.278107 234.183578,287.720612 
M400.945709,184.503891 
	C400.945709,182.207291 400.945709,179.910690 400.945709,177.182709 
	C409.355957,177.182709 417.299438,177.182709 425.198547,177.182709 
	C425.198547,172.534653 425.198547,168.337784 425.198547,164.145309 
	C412.004456,164.145309 399.240479,164.145309 386.240845,164.145309 
	C386.240845,184.142593 386.240845,203.863113 386.240845,223.711609 
	C399.575989,223.711609 412.620972,223.711609 425.613953,223.711609 
	C425.613953,219.294281 425.613953,215.221786 425.613953,210.748138 
	C417.318756,210.748138 409.380066,210.748138 401.204071,210.748138 
	C401.204071,207.277695 401.204071,204.215652 401.204071,200.553925 
	C408.796906,200.553925 416.192291,200.553925 423.527161,200.553925 
	C423.527161,196.011612 423.527161,192.070572 423.527161,187.706848 
	C416.972839,187.706848 410.665649,187.816818 404.369110,187.607788 
	C403.204590,187.569122 402.082855,186.242157 400.945709,184.503891 
M189.212418,191.499939 
	C189.212418,202.262527 189.212418,213.025116 189.212418,223.707108 
	C194.667175,223.707108 199.410110,223.707108 204.578903,223.707108 
	C204.578903,217.450882 204.578903,211.518768 204.578903,205.046661 
	C208.797485,205.046661 212.613190,205.262253 216.396606,205.004257 
	C225.915451,204.355179 232.968964,197.254410 233.953140,187.603104 
	C235.078308,176.569183 229.698166,166.519073 220.253220,165.093063 
	C210.197952,163.574921 199.858994,163.935959 189.214828,163.457214 
	C189.214828,173.230850 189.214828,181.865387 189.212418,191.499939 
M346.664581,287.991241 
	C347.962799,289.378998 349.132568,291.779327 350.583466,291.963379 
	C354.822449,292.501099 359.173645,292.154510 363.818665,292.154510 
	C363.424164,290.663147 363.242767,289.536865 362.834412,288.499939 
	C356.804474,273.188293 350.777649,257.875275 344.678741,242.591034 
	C341.150360,233.748581 341.092102,233.902359 331.216949,233.838623 
	C328.064270,233.818268 326.452637,234.781723 325.389709,237.802826 
	C323.074341,244.383545 320.370209,250.827179 317.839966,257.332672 
	C313.397156,268.755432 308.965576,280.182587 304.393402,291.957855 
	C309.800659,291.957855 314.722076,291.957855 320.282135,291.957855 
	C320.385773,280.571045 327.561859,279.733765 336.713165,280.067444 
	C342.388580,280.274384 345.408325,281.756958 346.664581,287.991241 
M398.333344,233.905884 
	C384.203979,233.905884 370.074615,233.905884 355.631226,233.905884 
	C355.631226,238.581833 355.631226,242.794586 355.631226,247.589935 
	C360.972382,247.589935 366.022980,247.589935 371.533844,247.589935 
	C371.533844,262.741913 371.533844,277.318756 371.533844,291.762939 
	C376.587555,291.762939 381.141602,291.762939 386.164917,291.762939 
	C386.164917,276.782745 386.164917,262.215424 386.164917,247.189514 
	C391.396210,247.189514 396.146729,247.189514 401.162384,247.189514 
	C401.162384,243.566757 401.325989,240.402344 401.077026,237.270737 
	C400.985199,236.115799 399.920929,235.038193 398.333344,233.905884 
M307.605103,195.500244 
	C307.605103,185.087967 307.605103,174.675690 307.605103,164.056030 
	C302.426270,164.056030 297.840912,164.056030 293.231354,164.056030 
	C293.231354,184.099243 293.231354,203.938187 293.231354,223.692276 
	C298.136932,223.692276 302.684692,223.692276 307.607086,223.692276 
	C307.607086,214.391891 307.607086,205.446075 307.605103,195.500244 
M252.958801,306.502075 
	C252.594254,306.809540 251.913391,307.114838 251.911255,307.424774 
	C251.853470,315.823792 251.865143,324.223297 251.865143,332.647949 
	C254.180008,332.647949 255.942657,332.647949 258.368408,332.647949 
	C258.368408,328.007599 258.368408,323.583374 258.368408,317.714600 
	C261.187225,322.155060 263.200134,325.191833 265.072723,328.312836 
	C267.026611,331.569244 268.997620,334.575043 273.533295,332.253265 
	C273.533295,323.750732 273.533295,315.340698 273.533295,306.739349 
	C271.533783,306.739349 269.815552,306.739349 267.583740,306.739349 
	C267.583740,311.067566 267.583740,315.108368 267.583740,319.149200 
	C264.532074,316.374664 262.267700,313.394287 260.498352,310.144440 
	C258.949860,307.300293 257.012268,305.835175 252.958801,306.502075 
M356.985870,315.563660 
	C356.985870,321.191162 356.985870,326.818634 356.985870,332.664490 
	C359.249115,332.664490 361.016754,332.664490 363.393860,332.664490 
	C363.393860,328.140411 363.393860,323.694305 363.393860,319.248169 
	C366.253235,322.165375 368.346191,325.151459 370.149536,328.303253 
	C372.109589,331.729004 374.262207,334.343719 378.696716,332.416290 
	C378.696716,323.798523 378.696716,315.243988 378.696716,306.415466 
	C376.563660,306.518066 374.818817,306.601990 372.445831,306.716095 
	C372.445831,311.208191 372.445831,315.326416 372.445831,319.612610 
	C366.445740,315.893127 367.321228,305.000427 356.986084,306.719208 
	C356.986084,309.619019 356.986084,312.104309 356.985870,315.563660 
M307.503998,327.859619 
	C311.029144,322.625519 311.340515,317.057068 307.787994,311.980316 
	C302.296173,304.132172 293.856018,307.052948 286.093231,306.366577 
	C286.093231,315.486816 286.093231,324.030945 286.093231,332.868866 
	C293.521881,332.466125 301.148651,334.843719 307.503998,327.859619 
M336.678894,306.511658 
	C331.886383,305.389313 327.421997,306.017731 323.580109,309.251648 
	C318.980499,313.123413 317.638947,320.347107 320.322174,326.099731 
	C322.879089,331.581573 328.860565,334.271698 335.877869,333.095825 
	C341.498169,332.154053 345.749359,327.527496 346.523102,321.510681 
	C347.394470,314.734528 344.258575,309.635742 336.678894,306.511658 
M236.258148,330.861115 
	C237.377609,329.651489 238.693298,328.569885 239.581375,327.209229 
	C242.816803,322.252014 242.369186,315.512573 238.658676,310.922546 
	C234.926270,306.305420 228.243866,304.686981 222.375122,306.978729 
	C216.842148,309.139374 213.774155,314.076355 214.054276,320.368805 
	C214.538513,331.246582 225.067596,336.565125 236.258148,330.861115 
M196.031738,315.549286 
	C196.031738,312.618256 196.031738,309.687225 196.031738,306.748657 
	C193.617447,306.748657 191.867508,306.748657 190.051605,306.748657 
	C190.051605,315.569977 190.051605,324.110443 190.051605,332.564667 
	C195.827713,332.564667 201.246704,332.564667 206.964706,332.564667 
	C206.872482,330.635284 206.796860,329.052734 206.697128,326.966309 
	C202.976822,326.966309 199.580765,326.966309 196.030991,326.966309 
	C196.030991,323.139191 196.030991,319.831390 196.031738,315.549286 
z"/>
<path fill="#2C2C2C" opacity="1.000000" stroke="none" 
	d="
M110.550026,333.838989 
	C107.068192,334.274414 103.910118,334.960541 100.849815,334.657928 
	C97.202225,334.297211 94.741379,332.039520 94.734291,328.009888 
	C94.697647,307.189606 94.678711,286.369202 94.716537,265.548950 
	C94.718552,264.441193 94.942642,262.752075 95.658257,262.320862 
	C100.654800,259.309906 99.229614,254.468201 98.960365,250.288620 
	C98.582947,244.429794 100.887703,241.195618 106.170113,238.736511 
	C122.761734,231.012726 139.106293,222.759766 155.645065,214.919617 
	C158.925415,213.364578 160.490646,211.584991 160.179871,207.803650 
	C159.826385,203.502228 160.275436,199.137848 159.995880,194.825455 
	C159.919357,193.644897 158.480942,192.552628 157.667511,191.419846 
	C157.146606,191.687149 156.625717,191.954437 156.104813,192.221725 
	C156.104813,196.017624 156.174591,199.815125 156.088394,203.609070 
	C155.960571,209.236084 153.396393,212.092712 147.902328,212.105957 
	C116.254753,212.182251 84.606804,212.172195 52.959206,212.095947 
	C47.993111,212.083984 45.052074,209.387054 44.938797,204.419205 
	C44.688259,193.431564 44.683804,182.433365 44.848289,171.443497 
	C44.922352,166.495026 48.204605,163.965469 54.113102,163.921921 
	C65.772202,163.835968 77.432327,163.888214 89.092033,163.886063 
	C107.747581,163.882629 126.403137,163.879959 145.058685,163.879944 
	C153.682724,163.879929 156.011322,166.171509 156.113953,174.773193 
	C156.139526,176.916016 156.117783,179.059402 156.117783,181.883316 
	C158.672363,181.883316 160.933823,181.862152 163.194748,181.887802 
	C167.607010,181.937851 170.082062,184.071655 170.103226,188.593399 
	C170.142975,197.088058 170.052048,205.583588 170.129318,214.077698 
	C170.165497,218.053391 167.841263,219.979996 164.606033,221.540222 
	C146.173584,230.429306 127.780266,239.399582 109.050018,248.499481 
	C109.050018,251.246246 108.995583,254.064728 109.080658,256.878998 
	C109.109001,257.816437 109.224716,259.341095 109.758934,259.582397 
	C115.254585,262.064880 114.035522,266.937927 114.050026,271.294312 
	C114.110489,289.450012 114.215965,307.607788 113.953888,325.759735 
	C113.915710,328.404541 111.976585,331.021881 110.550026,333.838989 
z"/>
<path fill="#2E2E2E" opacity="1.000000" stroke="none" 
	d="
M335.788696,200.269104 
	C333.938477,196.969437 332.264893,193.994904 330.591309,191.020386 
	C330.241974,191.088120 329.892670,191.155869 329.543335,191.223618 
	C329.543335,202.053604 329.543335,212.883606 329.543335,223.816193 
	C324.436768,223.816193 319.998016,223.816193 315.284668,223.816193 
	C315.284668,203.866272 315.284668,184.139114 315.284668,163.884537 
	C319.936310,163.884537 324.424072,163.562622 328.816498,164.068497 
	C330.250183,164.233627 331.797913,166.353134 332.674072,167.924240 
	C337.426331,176.445862 341.984528,185.075668 347.066010,194.516235 
	C351.692474,185.952850 356.224121,178.440842 359.865204,170.519455 
	C362.317688,165.183945 365.558350,162.897186 371.346252,163.813995 
	C373.740845,164.193314 376.245667,163.876907 378.926849,163.876907 
	C378.926849,184.064758 378.926849,203.794800 378.926849,223.780884 
	C374.268036,223.780884 369.826508,223.780884 364.628906,223.780884 
	C364.628906,213.189224 364.628906,202.544449 364.628906,191.899673 
	C364.163574,191.790451 363.698212,191.681229 363.232880,191.572006 
	C360.232513,197.197281 357.214630,202.813309 354.240204,208.452255 
	C353.001587,210.800476 352.161072,213.193756 348.532562,212.886963 
	C345.176270,212.603165 341.984009,213.121582 340.427795,208.954834 
	C339.332245,206.021591 337.479828,203.371017 335.788696,200.269104 
z"/>
<path fill="#303030" opacity="1.000000" stroke="none" 
	d="
M296.768494,286.790405 
	C285.270935,295.338074 270.533569,296.126007 259.537933,288.988312 
	C248.622269,281.902527 243.949051,269.587738 246.934448,255.775742 
	C249.914246,241.989655 262.778473,232.408463 277.899170,232.713379 
	C292.264160,233.003067 304.605530,243.141953 306.991730,256.798401 
	C309.030060,268.463928 306.047455,278.542664 296.768494,286.790405 
M273.919586,246.830719 
	C266.803223,248.109619 263.012268,252.686951 261.587219,259.468109 
	C260.183563,266.147278 261.565918,272.221680 267.013062,276.542114 
	C272.105103,280.580963 277.951965,280.970062 283.899261,278.087982 
	C290.277496,274.997070 293.600891,266.755402 291.655090,258.802582 
	C289.620605,250.487289 284.188690,246.592789 273.919586,246.830719 
z"/>
<path fill="#2F2F2F" opacity="1.000000" stroke="none" 
	d="
M266.856628,218.273499 
	C264.773315,214.438278 262.630005,211.040375 261.018494,207.406601 
	C259.600342,204.208786 257.652283,203.184433 254.121750,204.528366 
	C254.121750,210.710541 254.121750,216.992493 254.121750,223.657806 
	C249.104599,223.657806 244.392380,223.657806 239.340363,223.657806 
	C239.340363,204.014221 239.340363,184.308990 239.340363,164.438339 
	C249.036560,164.438339 258.822693,163.733383 268.454285,164.650696 
	C276.887299,165.453842 282.215942,171.829285 283.789978,180.221176 
	C285.327759,188.419617 282.202118,195.779388 275.205139,200.445816 
	C274.664734,200.806229 274.140259,201.190506 273.363586,201.735443 
	C277.743652,208.953140 282.082275,216.102509 286.886627,224.019363 
	C281.236328,224.019363 276.539551,224.545532 272.067078,223.773026 
	C270.147217,223.441406 268.693359,220.411987 266.856628,218.273499 
M265.994202,189.828217 
	C269.060394,187.413712 269.953003,184.078125 267.944061,181.003036 
	C264.589935,175.868896 259.145050,177.906708 254.252869,177.577164 
	C254.252869,182.282288 254.252869,186.513992 254.252869,191.475906 
	C258.157837,191.025055 261.711212,190.614792 265.994202,189.828217 
z"/>
<path fill="#303030" opacity="1.000000" stroke="none" 
	d="
M233.894257,287.936646 
	C218.120743,298.278107 198.695419,294.446503 189.956238,279.543030 
	C180.473145,263.370941 185.965881,243.777878 202.313416,235.463913 
	C218.085526,227.442566 238.114990,235.675766 243.137711,252.665543 
	C239.508881,253.699493 235.912552,254.908676 232.222794,255.657242 
	C231.185349,255.867706 229.433884,255.054703 228.757767,254.151382 
	C223.775085,247.494385 217.330978,244.969666 210.608337,247.309769 
	C204.611252,249.397324 200.554001,256.140228 200.709686,263.760712 
	C200.871048,271.659149 205.094238,277.377594 212.246857,279.382843 
	C218.899048,281.247803 224.638885,278.666901 229.036682,271.849487 
	C229.298737,271.443207 229.658356,271.099915 230.228806,270.423431 
	C232.995346,271.151093 235.872498,271.878784 238.731384,272.672119 
	C240.144913,273.064331 241.524841,273.577545 243.163193,274.115936 
	C241.815674,279.992462 238.469803,284.159424 233.894257,287.936646 
z"/>
<path fill="#303030" opacity="1.000000" stroke="none" 
	d="
M400.943542,185.006851 
	C402.082855,186.242157 403.204590,187.569122 404.369110,187.607788 
	C410.665649,187.816818 416.972839,187.706848 423.527161,187.706848 
	C423.527161,192.070572 423.527161,196.011612 423.527161,200.553925 
	C416.192291,200.553925 408.796906,200.553925 401.204071,200.553925 
	C401.204071,204.215652 401.204071,207.277695 401.204071,210.748138 
	C409.380066,210.748138 417.318756,210.748138 425.613953,210.748138 
	C425.613953,215.221786 425.613953,219.294281 425.613953,223.711609 
	C412.620972,223.711609 399.575989,223.711609 386.240845,223.711609 
	C386.240845,203.863113 386.240845,184.142593 386.240845,164.145309 
	C399.240479,164.145309 412.004456,164.145309 425.198547,164.145309 
	C425.198547,168.337784 425.198547,172.534653 425.198547,177.182709 
	C417.299438,177.182709 409.355957,177.182709 400.945709,177.182709 
	C400.945709,179.910690 400.945709,182.207291 400.943542,185.006851 
z"/>
<path fill="#303030" opacity="1.000000" stroke="none" 
	d="
M189.213623,190.999924 
	C189.214828,181.865387 189.214828,173.230850 189.214828,163.457214 
	C199.858994,163.935959 210.197952,163.574921 220.253220,165.093063 
	C229.698166,166.519073 235.078308,176.569183 233.953140,187.603104 
	C232.968964,197.254410 225.915451,204.355179 216.396606,205.004257 
	C212.613190,205.262253 208.797485,205.046661 204.578903,205.046661 
	C204.578903,211.518768 204.578903,217.450882 204.578903,223.707108 
	C199.410110,223.707108 194.667175,223.707108 189.212418,223.707108 
	C189.212418,213.025116 189.212418,202.262527 189.213623,190.999924 
M213.030792,191.169037 
	C217.731339,189.765182 219.942047,186.499023 218.847397,182.575470 
	C217.602921,178.114914 212.862747,176.619247 204.607254,178.208054 
	C204.607254,182.377136 204.607254,186.594467 204.607254,191.259476 
	C207.263168,191.259476 209.702591,191.259476 213.030792,191.169037 
z"/>
<path fill="#2E2E2E" opacity="1.000000" stroke="none" 
	d="
M346.502197,287.615814 
	C345.408325,281.756958 342.388580,280.274384 336.713165,280.067444 
	C327.561859,279.733765 320.385773,280.571045 320.282135,291.957855 
	C314.722076,291.957855 309.800659,291.957855 304.393402,291.957855 
	C308.965576,280.182587 313.397156,268.755432 317.839966,257.332672 
	C320.370209,250.827179 323.074341,244.383545 325.389709,237.802826 
	C326.452637,234.781723 328.064270,233.818268 331.216949,233.838623 
	C341.092102,233.902359 341.150360,233.748581 344.678741,242.591034 
	C350.777649,257.875275 356.804474,273.188293 362.834412,288.499939 
	C363.242767,289.536865 363.424164,290.663147 363.818665,292.154510 
	C359.173645,292.154510 354.822449,292.501099 350.583466,291.963379 
	C349.132568,291.779327 347.962799,289.378998 346.502197,287.615814 
M331.924683,267.789246 
	C334.202332,267.789246 336.479980,267.789246 339.507935,267.789246 
	C337.681183,262.693298 336.079773,258.225891 334.059418,252.589813 
	C332.256012,257.597626 330.835388,261.135986 329.782898,264.780609 
	C329.549622,265.588409 330.616211,266.771637 331.924683,267.789246 
z"/>
<path fill="#323232" opacity="1.000000" stroke="none" 
	d="
M398.816772,233.915588 
	C399.920929,235.038193 400.985199,236.115799 401.077026,237.270737 
	C401.325989,240.402344 401.162384,243.566757 401.162384,247.189514 
	C396.146729,247.189514 391.396210,247.189514 386.164917,247.189514 
	C386.164917,262.215424 386.164917,276.782745 386.164917,291.762939 
	C381.141602,291.762939 376.587555,291.762939 371.533844,291.762939 
	C371.533844,277.318756 371.533844,262.741913 371.533844,247.589935 
	C366.022980,247.589935 360.972382,247.589935 355.631226,247.589935 
	C355.631226,242.794586 355.631226,238.581833 355.631226,233.905884 
	C370.074615,233.905884 384.203979,233.905884 398.816772,233.915588 
z"/>
<path fill="#323232" opacity="1.000000" stroke="none" 
	d="
M307.606079,196.000244 
	C307.607086,205.446075 307.607086,214.391891 307.607086,223.692276 
	C302.684692,223.692276 298.136932,223.692276 293.231354,223.692276 
	C293.231354,203.938187 293.231354,184.099243 293.231354,164.056030 
	C297.840912,164.056030 302.426270,164.056030 307.605103,164.056030 
	C307.605103,174.675690 307.605103,185.087967 307.606079,196.000244 
z"/>
<path fill="#373737" opacity="1.000000" stroke="none" 
	d="
M253.354492,306.462524 
	C257.012268,305.835175 258.949860,307.300293 260.498352,310.144440 
	C262.267700,313.394287 264.532074,316.374664 267.583740,319.149200 
	C267.583740,315.108368 267.583740,311.067566 267.583740,306.739349 
	C269.815552,306.739349 271.533783,306.739349 273.533295,306.739349 
	C273.533295,315.340698 273.533295,323.750732 273.533295,332.253265 
	C268.997620,334.575043 267.026611,331.569244 265.072723,328.312836 
	C263.200134,325.191833 261.187225,322.155060 258.368408,317.714600 
	C258.368408,323.583374 258.368408,328.007599 258.368408,332.647949 
	C255.942657,332.647949 254.180008,332.647949 251.865143,332.647949 
	C251.865143,324.223297 251.853470,315.823792 251.911255,307.424774 
	C251.913391,307.114838 252.594254,306.809540 253.354492,306.462524 
z"/>
<path fill="#343434" opacity="1.000000" stroke="none" 
	d="
M356.985962,315.076599 
	C356.986084,312.104309 356.986084,309.619019 356.986084,306.719208 
	C367.321228,305.000427 366.445740,315.893127 372.445831,319.612610 
	C372.445831,315.326416 372.445831,311.208191 372.445831,306.716095 
	C374.818817,306.601990 376.563660,306.518066 378.696716,306.415466 
	C378.696716,315.243988 378.696716,323.798523 378.696716,332.416290 
	C374.262207,334.343719 372.109589,331.729004 370.149536,328.303253 
	C368.346191,325.151459 366.253235,322.165375 363.393860,319.248169 
	C363.393860,323.694305 363.393860,328.140411 363.393860,332.664490 
	C361.016754,332.664490 359.249115,332.664490 356.985870,332.664490 
	C356.985870,326.818634 356.985870,321.191162 356.985962,315.076599 
z"/>
<path fill="#373737" opacity="1.000000" stroke="none" 
	d="
M307.257050,328.145996 
	C301.148651,334.843719 293.521881,332.466125 286.093231,332.868866 
	C286.093231,324.030945 286.093231,315.486816 286.093231,306.366577 
	C293.856018,307.052948 302.296173,304.132172 307.787994,311.980316 
	C311.340515,317.057068 311.029144,322.625519 307.257050,328.145996 
M291.975281,319.535095 
	C291.975281,321.983673 291.975281,324.432281 291.975281,328.659729 
	C296.140594,326.811066 300.162109,326.173645 302.039734,323.823425 
	C303.494995,322.001862 303.443817,317.040680 301.943756,315.278229 
	C300.015594,313.012695 295.968384,312.550720 291.969452,310.970062 
	C291.969452,314.660675 291.969452,316.622467 291.975281,319.535095 
z"/>
<path fill="#373737" opacity="1.000000" stroke="none" 
	d="
M337.062744,306.632233 
	C344.258575,309.635742 347.394470,314.734528 346.523102,321.510681 
	C345.749359,327.527496 341.498169,332.154053 335.877869,333.095825 
	C328.860565,334.271698 322.879089,331.581573 320.322174,326.099731 
	C317.638947,320.347107 318.980499,313.123413 323.580109,309.251648 
	C327.421997,306.017731 331.886383,305.389313 337.062744,306.632233 
M330.438904,327.157654 
	C334.604279,328.400635 338.286163,327.071625 339.136963,323.035370 
	C339.752808,320.113831 338.926849,315.879669 337.030182,313.775696 
	C335.662415,312.258453 331.010193,312.291931 328.651154,313.398834 
	C324.825531,315.193878 324.792725,319.367676 326.157562,323.000885 
	C326.733612,324.534271 328.501648,325.619873 330.438904,327.157654 
z"/>
<path fill="#373737" opacity="1.000000" stroke="none" 
	d="
M235.947784,331.066132 
	C225.067596,336.565125 214.538513,331.246582 214.054276,320.368805 
	C213.774155,314.076355 216.842148,309.139374 222.375122,306.978729 
	C228.243866,304.686981 234.926270,306.305420 238.658676,310.922546 
	C242.369186,315.512573 242.816803,322.252014 239.581375,327.209229 
	C238.693298,328.569885 237.377609,329.651489 235.947784,331.066132 
M220.800659,321.146881 
	C221.616135,325.612946 224.424423,327.824524 228.818405,327.425995 
	C232.883194,327.057343 234.782822,324.255188 235.006073,320.312927 
	C235.273514,315.590393 232.678833,312.280426 228.515396,311.923492 
	C223.635239,311.505157 221.139771,314.172638 220.800659,321.146881 
z"/>
<path fill="#373737" opacity="1.000000" stroke="none" 
	d="
M196.031372,316.036438 
	C196.030991,319.831390 196.030991,323.139191 196.030991,326.966309 
	C199.580765,326.966309 202.976822,326.966309 206.697128,326.966309 
	C206.796860,329.052734 206.872482,330.635284 206.964706,332.564667 
	C201.246704,332.564667 195.827713,332.564667 190.051605,332.564667 
	C190.051605,324.110443 190.051605,315.569977 190.051605,306.748657 
	C191.867508,306.748657 193.617447,306.748657 196.031738,306.748657 
	C196.031738,309.687225 196.031738,312.618256 196.031372,316.036438 
z"/>
<path fill="#FBFBFB" opacity="1.000000" stroke="none" 
	d="
M274.349609,246.767059 
	C284.188690,246.592789 289.620605,250.487289 291.655090,258.802582 
	C293.600891,266.755402 290.277496,274.997070 283.899261,278.087982 
	C277.951965,280.970062 272.105103,280.580963 267.013062,276.542114 
	C261.565918,272.221680 260.183563,266.147278 261.587219,259.468109 
	C263.012268,252.686951 266.803223,248.109619 274.349609,246.767059 
z"/>
<path fill="#F6F6F6" opacity="1.000000" stroke="none" 
	d="
M265.629395,190.016373 
	C261.711212,190.614792 258.157837,191.025055 254.252869,191.475906 
	C254.252869,186.513992 254.252869,182.282288 254.252869,177.577164 
	C259.145050,177.906708 264.589935,175.868896 267.944061,181.003036 
	C269.953003,184.078125 269.060394,187.413712 265.629395,190.016373 
z"/>
<path fill="#F4F4F4" opacity="1.000000" stroke="none" 
	d="
M212.586411,191.214264 
	C209.702591,191.259476 207.263168,191.259476 204.607254,191.259476 
	C204.607254,186.594467 204.607254,182.377136 204.607254,178.208054 
	C212.862747,176.619247 217.602921,178.114914 218.847397,182.575470 
	C219.942047,186.499023 217.731339,189.765182 212.586411,191.214264 
z"/>
<path fill="#E6E6E6" opacity="1.000000" stroke="none" 
	d="
M331.504456,267.785614 
	C330.616211,266.771637 329.549622,265.588409 329.782898,264.780609 
	C330.835388,261.135986 332.256012,257.597626 334.059418,252.589813 
	C336.079773,258.225891 337.681183,262.693298 339.507935,267.789246 
	C336.479980,267.789246 334.202332,267.789246 331.504456,267.785614 
z"/>
<path fill="#F6F6F6" opacity="1.000000" stroke="none" 
	d="
M291.972351,319.059692 
	C291.969452,316.622467 291.969452,314.660675 291.969452,310.970062 
	C295.968384,312.550720 300.015594,313.012695 301.943756,315.278229 
	C303.443817,317.040680 303.494995,322.001862 302.039734,323.823425 
	C300.162109,326.173645 296.140594,326.811066 291.975281,328.659729 
	C291.975281,324.432281 291.975281,321.983673 291.972351,319.059692 
z"/>
<path fill="#F4F4F4" opacity="1.000000" stroke="none" 
	d="
M330.083374,327.033325 
	C328.501648,325.619873 326.733612,324.534271 326.157562,323.000885 
	C324.792725,319.367676 324.825531,315.193878 328.651154,313.398834 
	C331.010193,312.291931 335.662415,312.258453 337.030182,313.775696 
	C338.926849,315.879669 339.752808,320.113831 339.136963,323.035370 
	C338.286163,327.071625 334.604279,328.400635 330.083374,327.033325 
z"/>
<path fill="#F4F4F4" opacity="1.000000" stroke="none" 
	d="
M220.731125,320.732788 
	C221.139771,314.172638 223.635239,311.505157 228.515396,311.923492 
	C232.678833,312.280426 235.273514,315.590393 235.006073,320.312927 
	C234.782822,324.255188 232.883194,327.057343 228.818405,327.425995 
	C224.424423,327.824524 221.616135,325.612946 220.731125,320.732788 
z"/>
</svg>